<!DOCTYPE svg PUBLIC "-//W3C//DTD SVG 1.1//EN" "http://www.w3.org/Graphics/SVG/1.1/DTD/svg11.dtd">
<!-- Uploaded to: SVG Repo, www.svgrepo.com, Transformed by: SVG Repo Mixer Tools -->
<svg height="800px" width="800px" version="1.1" id="Layer_1" xmlns="http://www.w3.org/2000/svg" xmlns:xlink="http://www.w3.org/1999/xlink" viewBox="-51.2 -51.2 614.40 614.40" xml:space="preserve" fill="#000000">
<g id="SVGRepo_bgCarrier" stroke-width="0">
<rect x="-51.2" y="-51.2" width="614.40" height="614.40" rx="307.2" fill="#eefafd" strokewidth="0"/>
</g>
<g id="SVGRepo_tracerCarrier" stroke-linecap="round" stroke-linejoin="round"/>
<g id="SVGRepo_iconCarrier"> <g> <path style="fill:#59A4FF;" d="M137.758,296.398c-2.088-3.62-4.831-6.411-7.578-7.996c-2.746-1.586-5.497-1.967-7.598-0.765 l-40.634,23.149l-19.045,11.067c-4.202,2.403-4.224,10.206-0.049,17.445c2.091,3.618,4.835,6.408,7.584,7.994 c2.747,1.587,5.497,1.969,7.599,0.771l40.627-23.152l19.045-11.067C141.918,311.445,141.94,303.635,137.758,296.398z"/> <path style="fill:#59A4FF;" d="M218.272,342.883c-2.088-3.62-4.831-6.411-7.579-7.997c-2.747-1.587-5.499-1.968-7.604-0.768 l-40.627,23.152l-19.045,11.067c-4.202,2.403-4.225,10.206-0.049,17.445c2.091,3.618,4.834,6.407,7.581,7.993 c2.746,1.586,5.497,1.968,7.602,0.772l40.627-23.152l19.045-11.068C222.432,357.931,222.454,350.12,218.272,342.883z"/> <path style="fill:#59A4FF;" d="M298.786,389.369c-2.091-3.622-4.836-6.414-7.584-8.001c-2.747-1.587-5.497-1.967-7.599-0.765 l-40.627,23.152l-19.045,11.067c-4.21,2.399-4.232,10.202-0.049,17.445c2.088,3.616,4.83,6.405,7.579,7.991 c2.747,1.587,5.499,1.97,7.604,0.775l40.627-23.152l0,0l19.045-11.067C302.939,404.411,302.962,396.6,298.786,389.369z"/> </g> <g> <path style="fill:#9BC9FD;" d="M111.136,299.469c2.746,1.586,5.49,4.377,7.578,7.996c4.182,7.235,4.16,15.047-0.049,17.445 l-40.627,23.152c-2.102,1.197-4.851,0.815-7.599-0.771s-5.493-4.376-7.583-7.994c-4.175-7.24-4.153-15.042,0.049-17.445 l40.634-23.149C105.639,297.504,108.389,297.884,111.136,299.469z"/> <path style="fill:#9BC9FD;" d="M191.649,345.954c2.747,1.587,5.491,4.377,7.579,7.997c4.182,7.235,4.16,15.047-0.049,17.445 l-40.627,23.152c-2.105,1.195-4.854,0.813-7.602-0.772c-2.746-1.586-5.49-4.375-7.581-7.992c-4.175-7.24-4.153-15.042,0.049-17.445 l40.627-23.152C186.149,343.986,188.902,344.368,191.649,345.954z"/> <path style="fill:#9BC9FD;" d="M279.741,400.436c4.175,7.232,4.153,15.042-0.049,17.445l-40.627,23.152 c-2.105,1.195-4.856,0.812-7.604-0.775c-2.747-1.587-5.491-4.375-7.579-7.991c-4.182-7.244-4.16-15.047,0.049-17.445l40.627-23.152 c2.102-1.202,4.851-0.821,7.599,0.765C274.905,394.021,277.65,396.815,279.741,400.436z"/> </g> <g> <path style="fill:#59A4FF;" d="M116.428,366.664c-2.088-3.62-4.831-6.411-7.578-7.996c-2.746-1.586-5.497-1.967-7.598-0.765 l-40.634,23.149l-19.045,11.067c-4.202,2.403-4.224,10.206-0.049,17.445c2.091,3.618,4.835,6.408,7.584,7.994 c2.747,1.587,5.497,1.969,7.599,0.771l40.627-23.152l19.045-11.067C120.588,381.711,120.61,373.9,116.428,366.664z"/> <path style="fill:#59A4FF;" d="M196.942,413.15c-2.088-3.62-4.831-6.411-7.579-7.997c-2.747-1.587-5.499-1.968-7.604-0.768 l-40.627,23.152l-19.045,11.067c-4.202,2.403-4.225,10.206-0.049,17.445c2.091,3.618,4.834,6.407,7.581,7.993 c2.746,1.586,5.497,1.968,7.602,0.772l40.627-23.152l19.045-11.067C201.103,428.196,201.125,420.385,196.942,413.15z"/> <path style="fill:#59A4FF;" d="M277.456,459.634c-2.091-3.622-4.835-6.414-7.584-8.001c-2.747-1.587-5.497-1.967-7.599-0.765 l-40.627,23.152l-19.045,11.068c-4.21,2.399-4.232,10.202-0.049,17.445c2.088,3.616,4.83,6.405,7.579,7.991 c2.747,1.587,5.499,1.97,7.604,0.775l40.627-23.152l0,0l19.045-11.067C281.609,474.677,281.631,466.866,277.456,459.634z"/> </g> <g> <path style="fill:#9BC9FD;" d="M89.805,369.735c2.746,1.586,5.49,4.377,7.578,7.996c4.182,7.235,4.16,15.047-0.049,17.445 l-40.627,23.152c-2.102,1.197-4.851,0.815-7.599-0.771s-5.493-4.376-7.583-7.994c-4.175-7.24-4.153-15.042,0.049-17.445 l40.634-23.149C84.31,367.769,87.059,368.149,89.805,369.735z"/> <path style="fill:#9BC9FD;" d="M170.319,416.22c2.747,1.586,5.491,4.377,7.579,7.997c4.182,7.235,4.16,15.047-0.049,17.445 l-40.627,23.152c-2.105,1.195-4.854,0.813-7.602-0.772c-2.746-1.586-5.49-4.375-7.581-7.993c-4.175-7.24-4.153-15.042,0.049-17.445 l40.627-23.152C164.82,414.252,167.571,414.634,170.319,416.22z"/> <path style="fill:#9BC9FD;" d="M258.412,470.702c4.175,7.232,4.153,15.042-0.049,17.445l-40.627,23.152 c-2.105,1.195-4.856,0.812-7.604-0.775c-2.747-1.587-5.491-4.375-7.579-7.991c-4.182-7.244-4.16-15.047,0.049-17.445l40.627-23.152 c2.102-1.202,4.851-0.821,7.599,0.765C253.575,464.287,256.32,467.08,258.412,470.702z"/> </g> <path style="fill:#ACABB1;" d="M411.023,159.028c-3.232-1.866-6.367-3.291-9.483-4.568c0.783-4.47,1.25-9.26,1.264-14.423 c0.135-47.696-33.38-105.768-74.887-129.733C307.036-1.751,288.12-2.868,274.459,5.071l-26.805,15.577 c-3.544-3.266-7.289-6.107-11.185-8.357C225.5,5.958,215.564,5.368,208.39,9.537l-28.892,16.79 c-13.343-5.185-25.289-4.738-34.422,0.569L90.685,58.505c0.037-0.021,0.075-0.038,0.112-0.06 c-11.33,6.521-18.364,20.461-18.421,40.304c-0.113,39.836,27.9,88.359,62.55,108.363l221.296,127.765 c17.53,10.121,33.397,11.003,44.825,4.264c-0.055,0.032-0.103,0.077-0.158,0.11l54.392-31.61 c11.268-6.549,18.256-20.472,18.312-40.263C473.706,227.567,445.691,179.044,411.023,159.028z"/> <path style="fill:#C6C5CB;" d="M273.526,41.915c41.508,23.965,75.022,82.037,74.887,129.733c-0.015,5.164-0.483,9.953-1.265,14.423 c3.116,1.277,6.251,2.701,9.483,4.568c34.669,20.016,62.683,68.537,62.569,108.352c-0.113,39.837-28.31,55.905-62.979,35.889 L134.926,207.114c-34.649-20.005-62.664-68.526-62.551-108.363c0.113-39.814,28.31-55.882,62.959-35.878 c2.444,1.411,4.828,2.991,7.193,4.674c0.001-0.362-0.038-0.725-0.037-1.087c0.071-25.048,17.788-35.144,39.586-22.559 c7.115,4.108,13.751,10.14,19.515,17.256C211.211,31.504,239.803,22.445,273.526,41.915z"/> <path style="fill:#ACABB1;" d="M357.958,263.566c-2.135-1.233-4.205-2.173-6.263-3.016c0.517-2.953,0.826-6.116,0.835-9.526 c0.089-31.502-22.047-69.857-49.461-85.686c-13.793-7.963-26.285-8.701-35.309-3.457l-17.704,10.289 c-2.341-2.157-4.815-4.034-7.387-5.52c-7.245-4.182-13.807-4.572-18.546-1.819l-19.082,11.089 c-8.812-3.425-16.703-3.129-22.734,0.376l-35.925,20.877c0.024-0.014,0.05-0.025,0.074-0.039 c-7.484,4.307-12.13,13.514-12.167,26.62c-0.074,26.312,18.428,58.359,41.313,71.572l146.161,84.386 c11.578,6.685,22.059,7.267,29.605,2.817c-0.037,0.021-0.068,0.051-0.104,0.072l35.925-20.877 c7.443-4.325,12.057-13.522,12.095-26.593C399.358,308.834,380.855,276.785,357.958,263.566z"/> <path style="fill:#C6C5CB;" d="M267.144,186.215c27.415,15.828,49.55,54.184,49.461,85.686c-0.009,3.41-0.318,6.573-0.835,9.527 c2.058,0.844,4.128,1.785,6.263,3.016c22.897,13.22,41.4,45.267,41.326,71.564c-0.074,26.312-18.698,36.925-41.596,23.704 l-146.161-84.386c-22.885-13.213-41.387-45.26-41.313-71.572c0.074-26.297,18.698-36.91,41.583-23.697 c1.614,0.932,3.189,1.976,4.751,3.088c0.001-0.24-0.025-0.478-0.024-0.718c0.047-16.543,11.749-23.212,26.146-14.9 c4.699,2.713,9.082,6.696,12.889,11.397C225.987,179.339,244.871,173.356,267.144,186.215z"/> </g>
</svg>