<svg xmlns="http://www.w3.org/2000/svg" xmlns:xlink="http://www.w3.org/1999/xlink" width="500" zoomAndPan="magnify" viewBox="0 0 375 374.999991" height="500" preserveAspectRatio="xMidYMid meet" version="1.0"><defs><g/><clipPath id="eec6854126"><path d="M 142.953125 131.839844 L 232.203125 131.839844 L 232.203125 202.339844 L 142.953125 202.339844 Z M 142.953125 131.839844 " clip-rule="nonzero"/></clipPath></defs><rect x="-37.5" width="450" fill="#ffffff" y="-37.499999" height="449.999989" fill-opacity="1"/><rect x="-37.5" width="450" fill="#ffffff" y="-37.499999" height="449.999989" fill-opacity="1"/><g clip-path="url(#eec6854126)"><path fill="#ffffff" d="M 219.878906 172.375 C 215.996094 171.179688 211.894531 171.023438 207.859375 170.976562 C 203.339844 170.898438 198.707031 171.089844 194.335938 169.75 C 188.96875 168.054688 183.335938 165.09375 180.992188 159.6875 C 179.351562 156.050781 179.214844 152.007812 178.769531 148.105469 C 178.65625 146.925781 178.554688 145.746094 178.332031 144.578125 C 178.324219 144.519531 178.324219 144.457031 178.386719 144.433594 C 178.417969 144.421875 178.46875 144.433594 178.496094 144.457031 C 179.050781 144.933594 179.605469 145.410156 180.160156 145.882812 C 180.332031 146.011719 180.320312 145.863281 180.3125 145.738281 C 179.804688 143.199219 181.023438 142.050781 182.355469 140.117188 C 183.375 138.539062 182.667969 137.804688 181.1875 137.03125 C 175.3125 134.027344 170.292969 129.367188 163.621094 133.425781 C 161.886719 134.472656 160.074219 135.457031 158.574219 136.835938 C 157.972656 137.375 157.761719 138.125 157.640625 138.894531 C 156.761719 143.832031 147.75 145.207031 143.691406 147.050781 C 142.460938 147.453125 142.976562 148.910156 143.921875 149.34375 C 143.996094 149.378906 144.050781 149.453125 144.042969 149.535156 C 144.015625 149.835938 144.105469 150.121094 144.164062 150.410156 C 144.644531 153.183594 147.734375 154.351562 150.269531 154.003906 C 155.40625 153.679688 161.300781 150.777344 166.046875 153.855469 C 173.117188 159.074219 166.914062 168.039062 165.195312 174.472656 C 163.757812 179.117188 164.570312 184.875 168.785156 187.808594 C 176.113281 193 189.589844 184.847656 197.007812 182.113281 C 200.261719 180.820312 203.730469 179.867188 207.25 179.882812 C 213.566406 180.1875 222.144531 182.976562 222.605469 190.390625 C 222.769531 196.292969 217.21875 200.179688 212.191406 201.957031 C 210.679688 202.476562 213.375 202.039062 213.683594 202.03125 C 222.167969 201.339844 232.027344 195.847656 232.023438 186.339844 C 232.222656 179.375 226.160156 174.117188 219.878906 172.375 Z M 219.878906 172.375 " fill-opacity="1" fill-rule="nonzero"/></g><g fill="#49a6a6" fill-opacity="0.4"><g transform="translate(96.58588, 226.1314)"><g><path d="M 13.25 -24.28125 C 15.351562 -24.28125 17.1875 -23.929688 18.75 -23.234375 C 20.3125 -22.546875 21.507812 -21.550781 22.34375 -20.25 C 23.175781 -18.957031 23.59375 -17.421875 23.59375 -15.640625 C 23.59375 -13.890625 23.175781 -12.359375 22.34375 -11.046875 C 21.507812 -9.742188 20.3125 -8.742188 18.75 -8.046875 C 17.1875 -7.347656 15.351562 -7 13.25 -7 L 7.765625 -7 L 7.765625 0 L 3.265625 0 L 3.265625 -24.28125 Z M 13.046875 -10.828125 C 15.003906 -10.828125 16.492188 -11.238281 17.515625 -12.0625 C 18.535156 -12.894531 19.046875 -14.085938 19.046875 -15.640625 C 19.046875 -17.191406 18.535156 -18.382812 17.515625 -19.21875 C 16.492188 -20.050781 15.003906 -20.46875 13.046875 -20.46875 L 7.765625 -20.46875 L 7.765625 -10.828125 Z M 13.046875 -10.828125 "/></g></g></g><g fill="#49a6a6" fill-opacity="0.4"><g transform="translate(121.769061, 226.1314)"><g><path d="M 21.46875 -3.78125 L 21.46875 0 L 3.265625 0 L 3.265625 -24.28125 L 20.984375 -24.28125 L 20.984375 -20.5 L 7.765625 -20.5 L 7.765625 -14.1875 L 19.5 -14.1875 L 19.5 -10.46875 L 7.765625 -10.46875 L 7.765625 -3.78125 Z M 21.46875 -3.78125 "/></g></g></g><g fill="#49a6a6" fill-opacity="0.4"><g transform="translate(145.009732, 226.1314)"><g><path d="M 8.1875 -20.46875 L 0.140625 -20.46875 L 0.140625 -24.28125 L 20.75 -24.28125 L 20.75 -20.46875 L 12.703125 -20.46875 L 12.703125 0 L 8.1875 0 Z M 8.1875 -20.46875 "/></g></g></g><g fill="#ffffff" fill-opacity="1"><g transform="translate(96.58588, 226.1314)"><g><path d="M 13.25 -24.28125 C 15.351562 -24.28125 17.1875 -23.929688 18.75 -23.234375 C 20.3125 -22.546875 21.507812 -21.550781 22.34375 -20.25 C 23.175781 -18.957031 23.59375 -17.421875 23.59375 -15.640625 C 23.59375 -13.890625 23.175781 -12.359375 22.34375 -11.046875 C 21.507812 -9.742188 20.3125 -8.742188 18.75 -8.046875 C 17.1875 -7.347656 15.351562 -7 13.25 -7 L 7.765625 -7 L 7.765625 0 L 3.265625 0 L 3.265625 -24.28125 Z M 13.046875 -10.828125 C 15.003906 -10.828125 16.492188 -11.238281 17.515625 -12.0625 C 18.535156 -12.894531 19.046875 -14.085938 19.046875 -15.640625 C 19.046875 -17.191406 18.535156 -18.382812 17.515625 -19.21875 C 16.492188 -20.050781 15.003906 -20.46875 13.046875 -20.46875 L 7.765625 -20.46875 L 7.765625 -10.828125 Z M 13.046875 -10.828125 "/></g></g></g><g fill="#ffffff" fill-opacity="1"><g transform="translate(121.769061, 226.1314)"><g><path d="M 21.46875 -3.78125 L 21.46875 0 L 3.265625 0 L 3.265625 -24.28125 L 20.984375 -24.28125 L 20.984375 -20.5 L 7.765625 -20.5 L 7.765625 -14.1875 L 19.5 -14.1875 L 19.5 -10.46875 L 7.765625 -10.46875 L 7.765625 -3.78125 Z M 21.46875 -3.78125 "/></g></g></g><g fill="#ffffff" fill-opacity="1"><g transform="translate(145.009732, 226.1314)"><g><path d="M 8.1875 -20.46875 L 0.140625 -20.46875 L 0.140625 -24.28125 L 20.75 -24.28125 L 20.75 -20.46875 L 12.703125 -20.46875 L 12.703125 0 L 8.1875 0 Z M 8.1875 -20.46875 "/></g></g></g><g fill="#ffffff" fill-opacity="1"><g transform="translate(168.969061, 226.1314)"><g><path d="M 3.265625 -24.28125 L 13.875 -24.28125 C 16.46875 -24.28125 18.769531 -23.773438 20.78125 -22.765625 C 22.789062 -21.765625 24.347656 -20.34375 25.453125 -18.5 C 26.566406 -16.664062 27.125 -14.546875 27.125 -12.140625 C 27.125 -9.734375 26.566406 -7.609375 25.453125 -5.765625 C 24.347656 -3.929688 22.789062 -2.507812 20.78125 -1.5 C 18.769531 -0.5 16.46875 0 13.875 0 L 3.265625 0 Z M 13.671875 -3.8125 C 15.453125 -3.8125 17.015625 -4.148438 18.359375 -4.828125 C 19.710938 -5.515625 20.753906 -6.488281 21.484375 -7.75 C 22.210938 -9.007812 22.578125 -10.472656 22.578125 -12.140625 C 22.578125 -13.804688 22.210938 -15.269531 21.484375 -16.53125 C 20.753906 -17.789062 19.710938 -18.757812 18.359375 -19.4375 C 17.015625 -20.125 15.453125 -20.46875 13.671875 -20.46875 L 7.765625 -20.46875 L 7.765625 -3.8125 Z M 13.671875 -3.8125 "/></g></g></g><g fill="#ffffff" fill-opacity="1"><g transform="translate(197.621002, 226.1314)"><g><path d="M 14.609375 0.34375 C 12.128906 0.34375 9.894531 -0.191406 7.90625 -1.265625 C 5.914062 -2.335938 4.351562 -3.828125 3.21875 -5.734375 C 2.09375 -7.648438 1.53125 -9.785156 1.53125 -12.140625 C 1.53125 -14.492188 2.09375 -16.625 3.21875 -18.53125 C 4.351562 -20.445312 5.914062 -21.941406 7.90625 -23.015625 C 9.894531 -24.085938 12.128906 -24.625 14.609375 -24.625 C 17.078125 -24.625 19.304688 -24.085938 21.296875 -23.015625 C 23.285156 -21.941406 24.847656 -20.457031 25.984375 -18.5625 C 27.117188 -16.664062 27.6875 -14.523438 27.6875 -12.140625 C 27.6875 -9.753906 27.117188 -7.613281 25.984375 -5.71875 C 24.847656 -3.820312 23.285156 -2.335938 21.296875 -1.265625 C 19.304688 -0.191406 17.078125 0.34375 14.609375 0.34375 Z M 14.609375 -3.609375 C 16.222656 -3.609375 17.675781 -3.972656 18.96875 -4.703125 C 20.269531 -5.429688 21.289062 -6.445312 22.03125 -7.75 C 22.769531 -9.0625 23.140625 -10.523438 23.140625 -12.140625 C 23.140625 -13.753906 22.769531 -15.210938 22.03125 -16.515625 C 21.289062 -17.828125 20.269531 -18.847656 18.96875 -19.578125 C 17.675781 -20.304688 16.222656 -20.671875 14.609375 -20.671875 C 12.984375 -20.671875 11.523438 -20.304688 10.234375 -19.578125 C 8.941406 -18.847656 7.925781 -17.828125 7.1875 -16.515625 C 6.445312 -15.210938 6.078125 -13.753906 6.078125 -12.140625 C 6.078125 -10.523438 6.445312 -9.0625 7.1875 -7.75 C 7.925781 -6.445312 8.941406 -5.429688 10.234375 -4.703125 C 11.523438 -3.972656 12.984375 -3.609375 14.609375 -3.609375 Z M 14.609375 -3.609375 "/></g></g></g><g fill="#ffffff" fill-opacity="1"><g transform="translate(226.827936, 226.1314)"><g><path d="M 14.5 0.34375 C 12.050781 0.34375 9.835938 -0.191406 7.859375 -1.265625 C 5.878906 -2.335938 4.328125 -3.820312 3.203125 -5.71875 C 2.085938 -7.613281 1.53125 -9.753906 1.53125 -12.140625 C 1.53125 -14.523438 2.09375 -16.664062 3.21875 -18.5625 C 4.351562 -20.457031 5.910156 -21.941406 7.890625 -23.015625 C 9.867188 -24.085938 12.082031 -24.625 14.53125 -24.625 C 16.519531 -24.625 18.332031 -24.273438 19.96875 -23.578125 C 21.613281 -22.890625 23.003906 -21.882812 24.140625 -20.5625 L 21.234375 -17.828125 C 19.472656 -19.722656 17.3125 -20.671875 14.75 -20.671875 C 13.082031 -20.671875 11.585938 -20.304688 10.265625 -19.578125 C 8.953125 -18.847656 7.925781 -17.835938 7.1875 -16.546875 C 6.445312 -15.253906 6.078125 -13.785156 6.078125 -12.140625 C 6.078125 -10.492188 6.445312 -9.023438 7.1875 -7.734375 C 7.925781 -6.441406 8.953125 -5.429688 10.265625 -4.703125 C 11.585938 -3.972656 13.082031 -3.609375 14.75 -3.609375 C 17.3125 -3.609375 19.472656 -4.566406 21.234375 -6.484375 L 24.140625 -3.71875 C 23.003906 -2.394531 21.609375 -1.382812 19.953125 -0.6875 C 18.304688 0 16.488281 0.34375 14.5 0.34375 Z M 14.5 0.34375 "/></g></g></g><g fill="#ffffff" fill-opacity="1"><g transform="translate(252.045803, 226.1314)"><g><path d="M 8.1875 -20.46875 L 0.140625 -20.46875 L 0.140625 -24.28125 L 20.75 -24.28125 L 20.75 -20.46875 L 12.703125 -20.46875 L 12.703125 0 L 8.1875 0 Z M 8.1875 -20.46875 "/></g></g></g><g fill="#ffffff" fill-opacity="1"><g transform="translate(272.927722, 226.1314)"><g><path d="M 14.609375 0.34375 C 12.128906 0.34375 9.894531 -0.191406 7.90625 -1.265625 C 5.914062 -2.335938 4.351562 -3.828125 3.21875 -5.734375 C 2.09375 -7.648438 1.53125 -9.785156 1.53125 -12.140625 C 1.53125 -14.492188 2.09375 -16.625 3.21875 -18.53125 C 4.351562 -20.445312 5.914062 -21.941406 7.90625 -23.015625 C 9.894531 -24.085938 12.128906 -24.625 14.609375 -24.625 C 17.078125 -24.625 19.304688 -24.085938 21.296875 -23.015625 C 23.285156 -21.941406 24.847656 -20.457031 25.984375 -18.5625 C 27.117188 -16.664062 27.6875 -14.523438 27.6875 -12.140625 C 27.6875 -9.753906 27.117188 -7.613281 25.984375 -5.71875 C 24.847656 -3.820312 23.285156 -2.335938 21.296875 -1.265625 C 19.304688 -0.191406 17.078125 0.34375 14.609375 0.34375 Z M 14.609375 -3.609375 C 16.222656 -3.609375 17.675781 -3.972656 18.96875 -4.703125 C 20.269531 -5.429688 21.289062 -6.445312 22.03125 -7.75 C 22.769531 -9.0625 23.140625 -10.523438 23.140625 -12.140625 C 23.140625 -13.753906 22.769531 -15.210938 22.03125 -16.515625 C 21.289062 -17.828125 20.269531 -18.847656 18.96875 -19.578125 C 17.675781 -20.304688 16.222656 -20.671875 14.609375 -20.671875 C 12.984375 -20.671875 11.523438 -20.304688 10.234375 -19.578125 C 8.941406 -18.847656 7.925781 -17.828125 7.1875 -16.515625 C 6.445312 -15.210938 6.078125 -13.753906 6.078125 -12.140625 C 6.078125 -10.523438 6.445312 -9.0625 7.1875 -7.75 C 7.925781 -6.445312 8.941406 -5.429688 10.234375 -4.703125 C 11.523438 -3.972656 12.984375 -3.609375 14.609375 -3.609375 Z M 14.609375 -3.609375 "/></g></g></g><g fill="#ffffff" fill-opacity="1"><g transform="translate(302.134655, 226.1314)"><g><path d="M 19.140625 0 L 14.1875 -7.109375 C 13.976562 -7.085938 13.664062 -7.078125 13.25 -7.078125 L 7.765625 -7.078125 L 7.765625 0 L 3.265625 0 L 3.265625 -24.28125 L 13.25 -24.28125 C 15.351562 -24.28125 17.1875 -23.929688 18.75 -23.234375 C 20.3125 -22.546875 21.507812 -21.550781 22.34375 -20.25 C 23.175781 -18.957031 23.59375 -17.421875 23.59375 -15.640625 C 23.59375 -13.816406 23.144531 -12.242188 22.25 -10.921875 C 21.363281 -9.609375 20.085938 -8.628906 18.421875 -7.984375 L 24 0 Z M 19.046875 -15.640625 C 19.046875 -17.191406 18.535156 -18.382812 17.515625 -19.21875 C 16.492188 -20.050781 15.003906 -20.46875 13.046875 -20.46875 L 7.765625 -20.46875 L 7.765625 -10.78125 L 13.046875 -10.78125 C 15.003906 -10.78125 16.492188 -11.203125 17.515625 -12.046875 C 18.535156 -12.890625 19.046875 -14.085938 19.046875 -15.640625 Z M 19.046875 -15.640625 "/></g></g></g><g fill="#49a6a6" fill-opacity="0.4"><g transform="translate(186.584436, 167.080902)"><g><path d="M 18.136719 -21.148438 L 18.136719 -29.003906 C 18.136719 -29.003906 17.546875 -29.855469 14.992188 -29.855469 C 12.242188 -29.855469 11.261719 -28.480469 11.261719 -25.667969 L 11.261719 -21.148438 L 3.339844 -21.148438 C 3.339844 -21.148438 2.488281 -20.492188 2.488281 -18.003906 C 2.488281 -15.253906 3.863281 -14.207031 6.679688 -14.207031 L 11.261719 -14.207031 L 11.261719 -6.351562 C 11.261719 -6.351562 11.851562 -5.5 14.40625 -5.5 C 17.15625 -5.5 18.136719 -6.875 18.136719 -9.691406 L 18.136719 -14.207031 L 26.058594 -14.207031 C 26.058594 -14.207031 26.84375 -14.863281 26.84375 -17.351562 C 26.84375 -20.101562 25.46875 -21.148438 22.65625 -21.148438 Z M 18.136719 -21.148438 "/></g></g></g><g fill="#ffffff" fill-opacity="1"><g transform="translate(186.584436, 167.080902)"><g><path d="M 18.136719 -21.148438 L 18.136719 -29.003906 C 18.136719 -29.003906 17.546875 -29.855469 14.992188 -29.855469 C 12.242188 -29.855469 11.261719 -28.480469 11.261719 -25.667969 L 11.261719 -21.148438 L 3.339844 -21.148438 C 3.339844 -21.148438 2.488281 -20.492188 2.488281 -18.003906 C 2.488281 -15.253906 3.863281 -14.207031 6.679688 -14.207031 L 11.261719 -14.207031 L 11.261719 -6.351562 C 11.261719 -6.351562 11.851562 -5.5 14.40625 -5.5 C 17.15625 -5.5 18.136719 -6.875 18.136719 -9.691406 L 18.136719 -14.207031 L 26.058594 -14.207031 C 26.058594 -14.207031 26.84375 -14.863281 26.84375 -17.351562 C 26.84375 -20.101562 25.46875 -21.148438 22.65625 -21.148438 Z M 18.136719 -21.148438 "/></g></g></g></svg>