<svg xmlns="http://www.w3.org/2000/svg" xmlns:xlink="http://www.w3.org/1999/xlink" width="500" zoomAndPan="magnify" viewBox="0 0 375 374.999991" height="500" preserveAspectRatio="xMidYMid meet" version="1.0"><defs><g/><clipPath id="97775b36f4"><path d="M 55.015625 113.207031 L 137.515625 113.207031 L 137.515625 234.214844 L 55.015625 234.214844 Z M 55.015625 113.207031 " clip-rule="nonzero"/></clipPath></defs><rect x="-37.5" width="450" fill="#ffffff" y="-37.499999" height="449.999989" fill-opacity="1"/><rect x="-37.5" width="450" fill="#2d3250" y="-37.499999" height="449.999989" fill-opacity="1"/><g clip-path="url(#97775b36f4)"><path fill="#ffffff" d="M 101.90625 206.214844 C 101.746094 208.058594 100.296875 209.347656 98.492188 209.246094 C 96.628906 209.144531 95.304688 207.609375 95.445312 205.707031 C 95.574219 203.917969 97.101562 202.632812 98.929688 202.773438 C 100.75 202.914062 102.058594 204.429688 101.90625 206.214844 Z M 74.460938 193.703125 C 75.519531 194.945312 76.371094 196.457031 77.066406 198.320312 C 77.191406 198.65625 77.382812 198.910156 77.535156 199.113281 C 77.601562 199.195312 77.6875 199.3125 77.707031 199.359375 C 78.765625 201.867188 78.863281 216.328125 77.398438 223.503906 C 73.355469 220.839844 63.207031 209.441406 60.941406 205.683594 C 61.179688 204.90625 60.960938 204.222656 60.835938 203.832031 C 60.082031 201.472656 59.878906 199.503906 60.199219 197.640625 C 60.765625 194.300781 62.472656 192.152344 65.417969 191.074219 C 68.566406 189.917969 72.117188 190.949219 74.460938 193.703125 Z M 137.496094 148.046875 C 137.40625 147.722656 136.382812 146.972656 136.054688 146.800781 C 135.265625 146.390625 133.394531 145.765625 132.492188 145.511719 C 129.039062 144.519531 126.898438 143.839844 123.175781 142.984375 C 117.378906 141.648438 116.066406 142.628906 112.488281 139.09375 C 109.863281 136.492188 111.421875 136.898438 108.054688 135.046875 C 102.878906 132.203125 99.429688 132.667969 98.152344 132.027344 C 96.242188 131.0625 96.707031 131.613281 96.011719 130.265625 L 93.882812 126.449219 C 93.011719 124.460938 90.148438 112.800781 88.519531 113.214844 C 85.335938 114.023438 85.917969 125.390625 86.882812 130.871094 C 86.441406 129.261719 83.011719 116.734375 80.746094 116.511719 C 77.4375 116.1875 78.328125 135.328125 78.480469 140.085938 C 78.507812 140.878906 78.191406 142.125 78.023438 142.972656 C 77.820312 144.011719 75.925781 147.402344 74.96875 150.824219 C 74.5 152.503906 70.445312 159.101562 65.78125 168.015625 C 63.027344 172.316406 58.40625 179.964844 59.832031 184.910156 C 60.121094 185.910156 60.628906 186.757812 61.355469 187.4375 C 58.46875 189.191406 56.523438 191.796875 55.566406 195.191406 C 54.71875 198.207031 54.847656 201.472656 55.957031 205.175781 C 56.085938 205.609375 56.34375 206.476562 57.167969 207.046875 C 59.121094 211.949219 71.148438 223.796875 74.449219 226.253906 C 74.101562 226.242188 73.71875 226.292969 73.300781 226.40625 C 72.554688 226.613281 71.773438 226.785156 71.019531 226.953125 C 70.652344 227.035156 70.285156 227.117188 69.921875 227.203125 C 69.179688 227.378906 68.609375 227.773438 68.277344 228.355469 C 68.042969 228.757812 67.824219 229.429688 68.105469 230.34375 C 68.332031 231.085938 68.582031 231.835938 68.855469 232.578125 C 69.09375 233.226562 69.589844 233.75 70.21875 234.019531 C 70.523438 234.148438 70.855469 234.214844 71.183594 234.214844 C 71.53125 234.214844 71.875 234.144531 72.199219 234 C 72.640625 233.804688 73.082031 233.605469 73.519531 233.402344 C 74.164062 233.109375 74.832031 232.804688 75.492188 232.527344 C 76.78125 231.980469 77.203125 231.199219 77.246094 230.464844 C 77.789062 230.128906 78.5 229.59375 79.230469 228.78125 C 80.105469 228.996094 80.972656 229.050781 81.855469 228.949219 C 82.539062 229.691406 83.089844 229.769531 84.359375 229.484375 C 85.742188 229.171875 86.886719 228.90625 87.964844 228.644531 C 88.679688 228.46875 89.25 228.058594 89.574219 227.488281 C 89.898438 226.914062 89.953125 226.21875 89.734375 225.523438 C 89.5 224.777344 89.246094 224.027344 88.972656 223.285156 C 88.640625 222.375 88.0625 221.96875 87.636719 221.789062 C 87.210938 221.609375 86.519531 221.476562 85.632812 221.871094 C 85.25 222.042969 84.867188 222.21875 84.480469 222.394531 C 83.789062 222.714844 83.136719 223.019531 82.460938 223.289062 C 81.855469 223.535156 81.398438 223.859375 81.097656 224.257812 C 81.863281 218.808594 83.535156 203.648438 81.933594 198.703125 C 81.929688 198.671875 81.925781 198.578125 81.925781 198.511719 C 81.921875 198.453125 81.921875 198.390625 81.917969 198.332031 C 81.910156 198.203125 81.917969 198.074219 81.921875 197.941406 C 81.929688 197.554688 81.945312 197.074219 81.773438 196.585938 C 80.792969 193.777344 79.421875 191.523438 77.585938 189.691406 C 74.757812 186.867188 71.433594 185.488281 67.703125 185.574219 C 67.664062 185.53125 67.625 185.488281 67.578125 185.445312 C 67.101562 184.996094 66.875 184.472656 66.867188 183.808594 C 66.847656 182.054688 68.300781 179.777344 70.027344 177.667969 C 72.375 175.753906 74.742188 173.46875 76.300781 170.5625 C 76.949219 169.058594 76.230469 169.246094 76.371094 166.449219 C 76.480469 162.929688 77.730469 158.90625 79.492188 156.167969 C 80.835938 153.898438 81.675781 153.121094 84.238281 151.664062 C 85.375 151.015625 86.082031 150.535156 86.605469 149.339844 C 87.390625 147.542969 89.53125 140.972656 92.179688 141.121094 C 94.089844 141.167969 94.226562 146.585938 94.472656 148.332031 C 94.894531 153.589844 94.617188 151.113281 99.109375 152.925781 C 102.109375 154.085938 100.496094 155 103.265625 157.339844 C 105.117188 159.148438 109.035156 157.527344 107.976562 162.417969 C 106.765625 167.179688 103.433594 167.949219 101.628906 169.941406 C 100.515625 171.03125 100.386719 171.332031 100.78125 173.214844 C 101.21875 175.976562 101.945312 178.578125 102.238281 181.351562 C 102.992188 185.992188 103.125 192.929688 101.589844 197.371094 C 101.613281 197.371094 101.632812 197.371094 101.660156 197.375 C 101.550781 197.589844 101.441406 197.804688 101.320312 198.019531 C 99.832031 198.046875 98.382812 197.894531 96.996094 198.136719 C 93.695312 198.710938 91.230469 201.335938 90.628906 204.652344 C 90.058594 207.792969 91.554688 211.078125 94.359375 212.839844 C 97.179688 214.609375 100.84375 214.488281 103.492188 212.535156 C 106.941406 209.996094 107.820312 205.402344 105.609375 201.675781 C 105.390625 201.308594 105.242188 200.671875 105.410156 200.339844 C 105.875 199.433594 106.269531 198.519531 106.601562 197.59375 C 106.648438 197.597656 106.6875 197.601562 106.734375 197.601562 C 106.828125 197.214844 106.921875 196.800781 107.007812 196.371094 C 107.851562 193.585938 108.164062 190.734375 108.070312 187.84375 C 108.566406 181.0625 108.476562 174.015625 108.105469 172.335938 C 106.269531 164.078125 115.125 171.597656 119.835938 171.5 C 122.335938 171.445312 125.136719 169.4375 126.730469 170.425781 C 127.277344 170.765625 127.320312 170.976562 127.78125 171.492188 C 131.527344 175.644531 132.359375 172.019531 132.605469 171.730469 C 131.582031 169.839844 130.222656 165.644531 129.039062 164.34375 C 127.261719 162.386719 125.050781 161.957031 123.425781 160.550781 C 127.851562 158.152344 131.847656 157.597656 134.578125 154 C 135.859375 152.308594 137.1875 151.746094 137.480469 150.523438 C 137.558594 150.203125 137.589844 148.394531 137.496094 148.046875 " fill-opacity="1" fill-rule="evenodd"/></g><g fill="#ffffff" fill-opacity="1"><g transform="translate(113.58206, 205.243184)"><g><path d="M 9.265625 -16.796875 C 10.753906 -16.796875 12.046875 -16.546875 13.140625 -16.046875 C 14.234375 -15.554688 15.078125 -14.851562 15.671875 -13.9375 C 16.265625 -13.03125 16.5625 -11.953125 16.5625 -10.703125 C 16.5625 -9.472656 16.265625 -8.394531 15.671875 -7.46875 C 15.078125 -6.550781 14.234375 -5.847656 13.140625 -5.359375 C 12.046875 -4.867188 10.753906 -4.625 9.265625 -4.625 L 5.875 -4.625 L 5.875 0 L 1.984375 0 L 1.984375 -16.796875 Z M 9.046875 -7.796875 C 10.210938 -7.796875 11.097656 -8.046875 11.703125 -8.546875 C 12.316406 -9.054688 12.625 -9.773438 12.625 -10.703125 C 12.625 -11.648438 12.316406 -12.375 11.703125 -12.875 C 11.097656 -13.375 10.210938 -13.625 9.046875 -13.625 L 5.875 -13.625 L 5.875 -7.796875 Z M 9.046875 -7.796875 "/></g></g></g><g fill="#ffffff" fill-opacity="1"><g transform="translate(131.654093, 205.243184)"><g><path d="M 15 -3.125 L 15 0 L 1.984375 0 L 1.984375 -16.796875 L 14.6875 -16.796875 L 14.6875 -13.6875 L 5.859375 -13.6875 L 5.859375 -10.03125 L 13.65625 -10.03125 L 13.65625 -7.015625 L 5.859375 -7.015625 L 5.859375 -3.125 Z M 15 -3.125 "/></g></g></g><g fill="#ffffff" fill-opacity="1"><g transform="translate(148.26213, 205.243184)"><g><path d="M 5.46875 -13.625 L 0.09375 -13.625 L 0.09375 -16.796875 L 14.734375 -16.796875 L 14.734375 -13.625 L 9.359375 -13.625 L 9.359375 0 L 5.46875 0 Z M 5.46875 -13.625 "/></g></g></g><g fill="#ffffff" fill-opacity="1"><g transform="translate(163.598167, 205.243184)"><g/></g></g><g fill="#ffffff" fill-opacity="1"><g transform="translate(170.894182, 205.243184)"><g><path d="M 1.984375 -16.796875 L 9.625 -16.796875 C 11.445312 -16.796875 13.054688 -16.445312 14.453125 -15.75 C 15.859375 -15.0625 16.945312 -14.082031 17.71875 -12.8125 C 18.5 -11.550781 18.890625 -10.082031 18.890625 -8.40625 C 18.890625 -6.71875 18.5 -5.242188 17.71875 -3.984375 C 16.945312 -2.722656 15.859375 -1.742188 14.453125 -1.046875 C 13.054688 -0.347656 11.445312 0 9.625 0 L 1.984375 0 Z M 9.4375 -3.1875 C 11.113281 -3.1875 12.453125 -3.65625 13.453125 -4.59375 C 14.453125 -5.53125 14.953125 -6.800781 14.953125 -8.40625 C 14.953125 -10 14.453125 -11.265625 13.453125 -12.203125 C 12.453125 -13.140625 11.113281 -13.609375 9.4375 -13.609375 L 5.875 -13.609375 L 5.875 -3.1875 Z M 9.4375 -3.1875 "/></g></g></g><g fill="#ffffff" fill-opacity="1"><g transform="translate(191.222223, 205.243184)"><g><path d="M 10.125 0.28125 C 8.382812 0.28125 6.8125 -0.09375 5.40625 -0.84375 C 4.007812 -1.59375 2.914062 -2.625 2.125 -3.9375 C 1.332031 -5.257812 0.9375 -6.75 0.9375 -8.40625 C 0.9375 -10.050781 1.332031 -11.53125 2.125 -12.84375 C 2.914062 -14.164062 4.007812 -15.203125 5.40625 -15.953125 C 6.8125 -16.710938 8.382812 -17.09375 10.125 -17.09375 C 11.875 -17.09375 13.441406 -16.710938 14.828125 -15.953125 C 16.222656 -15.203125 17.316406 -14.164062 18.109375 -12.84375 C 18.910156 -11.53125 19.3125 -10.050781 19.3125 -8.40625 C 19.3125 -6.75 18.910156 -5.257812 18.109375 -3.9375 C 17.316406 -2.625 16.222656 -1.59375 14.828125 -0.84375 C 13.441406 -0.09375 11.875 0.28125 10.125 0.28125 Z M 10.125 -3.03125 C 11.113281 -3.03125 12.007812 -3.253906 12.8125 -3.703125 C 13.613281 -4.160156 14.242188 -4.796875 14.703125 -5.609375 C 15.160156 -6.429688 15.390625 -7.363281 15.390625 -8.40625 C 15.390625 -9.4375 15.160156 -10.359375 14.703125 -11.171875 C 14.242188 -11.992188 13.613281 -12.632812 12.8125 -13.09375 C 12.007812 -13.550781 11.113281 -13.78125 10.125 -13.78125 C 9.132812 -13.78125 8.238281 -13.550781 7.4375 -13.09375 C 6.632812 -12.632812 6.003906 -11.992188 5.546875 -11.171875 C 5.097656 -10.359375 4.875 -9.4375 4.875 -8.40625 C 4.875 -7.363281 5.097656 -6.429688 5.546875 -5.609375 C 6.003906 -4.796875 6.632812 -4.160156 7.4375 -3.703125 C 8.238281 -3.253906 9.132812 -3.03125 10.125 -3.03125 Z M 10.125 -3.03125 "/></g></g></g><g fill="#ffffff" fill-opacity="1"><g transform="translate(211.982267, 205.243184)"><g><path d="M 10.03125 0.28125 C 8.320312 0.28125 6.773438 -0.0859375 5.390625 -0.828125 C 4.003906 -1.566406 2.914062 -2.597656 2.125 -3.921875 C 1.332031 -5.242188 0.9375 -6.738281 0.9375 -8.40625 C 0.9375 -10.0625 1.332031 -11.550781 2.125 -12.875 C 2.914062 -14.195312 4.003906 -15.226562 5.390625 -15.96875 C 6.773438 -16.71875 8.332031 -17.09375 10.0625 -17.09375 C 11.507812 -17.09375 12.820312 -16.832031 14 -16.3125 C 15.175781 -15.800781 16.164062 -15.066406 16.96875 -14.109375 L 14.46875 -11.8125 C 13.332031 -13.125 11.925781 -13.78125 10.25 -13.78125 C 9.207031 -13.78125 8.273438 -13.550781 7.453125 -13.09375 C 6.640625 -12.632812 6.003906 -11.992188 5.546875 -11.171875 C 5.097656 -10.359375 4.875 -9.4375 4.875 -8.40625 C 4.875 -7.363281 5.097656 -6.429688 5.546875 -5.609375 C 6.003906 -4.796875 6.640625 -4.160156 7.453125 -3.703125 C 8.273438 -3.253906 9.207031 -3.03125 10.25 -3.03125 C 11.925781 -3.03125 13.332031 -3.691406 14.46875 -5.015625 L 16.96875 -2.71875 C 16.164062 -1.738281 15.171875 -0.992188 13.984375 -0.484375 C 12.804688 0.0234375 11.488281 0.28125 10.03125 0.28125 Z M 10.03125 0.28125 "/></g></g></g><g fill="#ffffff" fill-opacity="1"><g transform="translate(230.078305, 205.243184)"><g><path d="M 5.46875 -13.625 L 0.09375 -13.625 L 0.09375 -16.796875 L 14.734375 -16.796875 L 14.734375 -13.625 L 9.359375 -13.625 L 9.359375 0 L 5.46875 0 Z M 5.46875 -13.625 "/></g></g></g><g fill="#ffffff" fill-opacity="1"><g transform="translate(245.414348, 205.243184)"><g><path d="M 10.125 0.28125 C 8.382812 0.28125 6.8125 -0.09375 5.40625 -0.84375 C 4.007812 -1.59375 2.914062 -2.625 2.125 -3.9375 C 1.332031 -5.257812 0.9375 -6.75 0.9375 -8.40625 C 0.9375 -10.050781 1.332031 -11.53125 2.125 -12.84375 C 2.914062 -14.164062 4.007812 -15.203125 5.40625 -15.953125 C 6.8125 -16.710938 8.382812 -17.09375 10.125 -17.09375 C 11.875 -17.09375 13.441406 -16.710938 14.828125 -15.953125 C 16.222656 -15.203125 17.316406 -14.164062 18.109375 -12.84375 C 18.910156 -11.53125 19.3125 -10.050781 19.3125 -8.40625 C 19.3125 -6.75 18.910156 -5.257812 18.109375 -3.9375 C 17.316406 -2.625 16.222656 -1.59375 14.828125 -0.84375 C 13.441406 -0.09375 11.875 0.28125 10.125 0.28125 Z M 10.125 -3.03125 C 11.113281 -3.03125 12.007812 -3.253906 12.8125 -3.703125 C 13.613281 -4.160156 14.242188 -4.796875 14.703125 -5.609375 C 15.160156 -6.429688 15.390625 -7.363281 15.390625 -8.40625 C 15.390625 -9.4375 15.160156 -10.359375 14.703125 -11.171875 C 14.242188 -11.992188 13.613281 -12.632812 12.8125 -13.09375 C 12.007812 -13.550781 11.113281 -13.78125 10.125 -13.78125 C 9.132812 -13.78125 8.238281 -13.550781 7.4375 -13.09375 C 6.632812 -12.632812 6.003906 -11.992188 5.546875 -11.171875 C 5.097656 -10.359375 4.875 -9.4375 4.875 -8.40625 C 4.875 -7.363281 5.097656 -6.429688 5.546875 -5.609375 C 6.003906 -4.796875 6.632812 -4.160156 7.4375 -3.703125 C 8.238281 -3.253906 9.132812 -3.03125 10.125 -3.03125 Z M 10.125 -3.03125 "/></g></g></g><g fill="#ffffff" fill-opacity="1"><g transform="translate(266.174388, 205.243184)"><g><path d="M 12.703125 0 L 9.453125 -4.6875 L 5.875 -4.6875 L 5.875 0 L 1.984375 0 L 1.984375 -16.796875 L 9.265625 -16.796875 C 10.753906 -16.796875 12.046875 -16.546875 13.140625 -16.046875 C 14.234375 -15.554688 15.078125 -14.851562 15.671875 -13.9375 C 16.265625 -13.03125 16.5625 -11.953125 16.5625 -10.703125 C 16.5625 -9.453125 16.257812 -8.375 15.65625 -7.46875 C 15.0625 -6.570312 14.210938 -5.882812 13.109375 -5.40625 L 16.875 0 Z M 12.625 -10.703125 C 12.625 -11.648438 12.316406 -12.375 11.703125 -12.875 C 11.097656 -13.375 10.210938 -13.625 9.046875 -13.625 L 5.875 -13.625 L 5.875 -7.78125 L 9.046875 -7.78125 C 10.210938 -7.78125 11.097656 -8.035156 11.703125 -8.546875 C 12.316406 -9.054688 12.625 -9.773438 12.625 -10.703125 Z M 12.625 -10.703125 "/></g></g></g></svg>