<!DOCTYPE svg PUBLIC "-//W3C//DTD SVG 1.1//EN" "http://www.w3.org/Graphics/SVG/1.1/DTD/svg11.dtd">
<!-- Uploaded to: SVG Repo, www.svgrepo.com, Transformed by: SVG Repo Mixer Tools -->
<svg height="800px" width="800px" version="1.1" id="Layer_1" xmlns="http://www.w3.org/2000/svg" xmlns:xlink="http://www.w3.org/1999/xlink" viewBox="-51.2 -51.2 614.40 614.40" xml:space="preserve" fill="#000000">
<g id="SVGRepo_bgCarrier" stroke-width="0">
<rect x="-51.2" y="-51.2" width="614.40" height="614.40" rx="307.2" fill="#eefafd" strokewidth="0"/>
</g>
<g id="SVGRepo_tracerCarrier" stroke-linecap="round" stroke-linejoin="round"/>
<g id="SVGRepo_iconCarrier"> <g> <polygon style="fill:#FF9911;" points="284.779,379.714 318.001,360.409 184.345,492.694 151.124,512 "/> <polygon style="fill:#FFEB9A;" points="220.196,342.428 253.417,323.122 318.001,360.409 284.779,379.714 "/> <polygon style="fill:#FF9911;" points="267.427,275.101 300.648,255.796 253.417,323.122 220.196,342.428 "/> <polygon style="fill:#FFEB9A;" points="195.035,233.306 228.256,214 300.648,255.796 267.427,275.101 "/> <polygon style="fill:#FEDA44;" points="284.779,379.714 151.124,512 204.42,378.364 133.97,337.69 195.035,233.306 267.427,275.101 220.196,342.428 "/> </g> <path style="fill:#ACABB1;" d="M395.048,160.191c-3.256-1.88-6.414-3.314-9.551-4.601c0.788-4.503,1.26-9.327,1.274-14.528 c0.136-48.044-33.623-106.54-75.435-130.681C290.3-1.763,271.247-2.889,257.487,5.108l-27,15.691 c-3.57-3.289-7.342-6.152-11.267-8.418c-11.049-6.379-21.058-6.973-28.284-2.773l-29.103,16.913 c-13.44-5.222-25.475-4.773-34.674,0.573L72.369,58.933c0.037-0.021,0.077-0.039,0.113-0.06 c-11.414,6.568-18.5,20.611-18.557,40.599c-0.113,40.128,28.104,89.004,63.007,109.155l222.913,128.699 c17.659,10.195,33.642,11.083,45.152,4.296c-0.056,0.033-0.103,0.078-0.159,0.11l54.79-31.84 c11.351-6.596,18.389-20.623,18.446-40.557C458.188,229.229,429.969,180.353,395.048,160.191z"/> <path style="fill:#C6C5CB;" d="M256.545,42.221c41.811,24.14,75.57,82.636,75.435,130.681c-0.015,5.201-0.486,10.025-1.274,14.528 c3.139,1.286,6.296,2.721,9.553,4.601c34.922,20.162,63.14,69.039,63.027,109.145c-0.113,40.128-28.517,56.314-63.439,36.152 L116.932,208.628c-34.902-20.151-63.12-69.027-63.007-109.155c0.113-40.105,28.517-56.292,63.418-36.14 c2.462,1.421,4.863,3.014,7.245,4.708c0.001-0.365-0.038-0.731-0.037-1.095c0.071-25.231,17.918-35.401,39.876-22.723 c7.168,4.138,13.851,10.214,19.657,17.381C193.776,31.733,222.576,22.609,256.545,42.221z"/> </g>
</svg>